<?xml version="1.0" encoding="utf-8"?>
<!-- Generator: Adobe Illustrator 22.0.1, SVG Export Plug-In . SVG Version: 6.00 Build 0)  -->
<svg version="1.1" id="Capa_1" xmlns="http://www.w3.org/2000/svg" xmlns:xlink="http://www.w3.org/1999/xlink" x="0px" y="0px"
	 viewBox="0 0 600 455.9" style="enable-background:new 0 0 600 455.9;" xml:space="preserve">
<style type="text/css">
	.st0{fill:#EEEEEE;}
</style>
<path class="st0" d="M415.9,387.2h-51c-1.6,0-3-1-3.4-2.5l-17.1-54.3c-0.5-1.5-1.9-2.5-3.4-2.5h-84.8c-1.5,0-2.9,1-3.4,2.4l-19,54.5
	c-0.5,1.4-1.9,2.4-3.4,2.4h-47.8c-2.5,0-4.2-2.4-3.4-4.8l116-342.6c1.1-3.3,5.7-3.3,6.8,0l117.3,342.6
	C420.2,384.7,418.4,387.2,415.9,387.2z M295.3,196.5l-26.1,82c-0.7,2.3,1,4.7,3.4,4.7h52.8c2.4,0,4.2-2.4,3.4-4.7l-26.7-82
	C301,193.1,296.3,193.2,295.3,196.5z"/>
<path class="st0" d="M398,234.5c0,0,59.1-42.9,91.8,2.3c0,0,32.1-12.6,49.4,17.4l3.1-53.4c0,0-3.6,2.4-8.6-3c0,0-6.4,5.9-12.7,1.4
	c0,0-9.8,5.4-15.5-1.8c-5.6-7.2,2-36.9,11-39c8.9-2,43.2,9.8,48.7,24.6c0,0,25.7,79.4-0.2,126.4c0,0-29.1,8.8-84.9-18.8
	c0,0-22.2,16.1-58.2,16.8L398,234.5z"/>
<path class="st0" d="M202,234.5c0,0-59.1-42.9-91.8,2.3c0,0-32.1-12.6-49.4,17.4l-3.1-53.4c0,0,3.6,2.4,8.6-3c0,0,6.4,5.9,12.7,1.4
	c0,0,9.8,5.4,15.5-1.8c5.6-7.2-2-36.9-11-39c-8.9-2-43.2,9.8-48.7,24.6c0,0-25.7,79.4,0.2,126.4c0,0,29.1,8.8,84.9-18.8
	c0,0,22.2,16.1,58.2,16.8L202,234.5z"/>
</svg>
